<svg width="24" height="24" viewBox="0 0 24 24" fill="none" xmlns="http://www.w3.org/2000/svg">
<path d="M3 12C3 11.3 3.24167 10.7083 3.725 10.225C4.20834 9.74167 4.8 9.5 5.5 9.5C6.2 9.5 6.79167 9.74167 7.275 10.225C7.75833 10.7083 8 11.3 8 12C8 12.7 7.75833 13.2917 7.275 13.775C6.79167 14.2583 6.2 14.5 5.5 14.5C4.8 14.5 4.20834 14.2583 3.725 13.775C3.24167 13.2917 3 12.7 3 12ZM9.61867 7.51896C9.14788 6.82718 9.13904 5.87234 9.73765 5.28765C10.3264 4.71261 11.2781 4.71257 11.775 5.36855C12.3135 6.07934 12.7675 6.86082 13.137 7.713C13.7117 9.03833 13.9993 10.4673 14 12C14.0007 13.5327 13.709 14.962 13.125 16.288C12.7472 17.1458 12.2825 17.9316 11.7309 18.6454C11.2304 19.2932 10.2834 19.2834 9.70459 18.7046C9.12216 18.1222 9.13645 17.1842 9.60233 16.505C9.90216 16.0678 10.1597 15.5995 10.375 15.1C10.7917 14.1333 11 13.1 11 12C11 10.9 10.7917 9.86667 10.375 8.9C10.1636 8.40963 9.91152 7.94928 9.61867 7.51896ZM13.8972 3.20911C13.379 2.56797 13.3722 1.62779 13.9551 1.0449C14.534 0.46601 15.477 0.456673 16.0094 1.07863C17.1027 2.35595 17.9912 3.78807 18.675 5.375C19.5583 7.425 20 9.63334 20 12C20 14.3667 19.5583 16.575 18.675 18.625C17.9911 20.2122 17.1024 21.6445 16.0089 22.922C15.4768 23.5436 14.5342 23.5342 13.9556 22.9556C13.3726 22.3726 13.38 21.4321 13.8985 20.7911C14.7161 19.7803 15.3873 18.6626 15.912 17.438C16.6367 15.7467 16.9993 13.934 17 12C17.0007 10.066 16.638 8.25367 15.912 6.563C15.3862 5.33856 14.7146 4.2206 13.8972 3.20911Z" fill="white"/>
</svg>
